<svg width="3990px" height="1805.3px" viewBox="0 0 3990 1805.3" xmlns="http://www.w3.org/2000/svg" xmlns:xlink="http://www.w3.org/1999/xlink">
  <defs/>
  <g>
    <path stroke="none" fill="#c10d0e" d="M3891 644.1 L3907.1 739.6 3908.75 805.95 3905.5 836.7 3905.9 841.15 3903.5 867.05 3901.85 874.3 3901.85 877.55 3901.1 879.15 3901.1 882.4 3899.9 888.45 3899.9 890.9 3897.85 897 3898.3 899.8 3896.65 900.6 3946.75 975.1 3979.95 1033.35 3984.35 1045.1 3977.1 1023.25 3979.95 937.85 3972.65 852.05 3950 743.65 Q4029.2 957.3 3969 1219.9 L3967.35 1227.15 3966.55 1227.95 3943.95 1318.65 3901.1 1423 3866.3 1487.75 3817.4 1560.2 3778.6 1607.95 3735.35 1653.65 3676.75 1706.65 3610 1755.65 3507.7 1814.3 3431.7 1845.85 3364.6 1866.9 3303.15 1880.65 3302.35 1881.45 Q3222.7 1894 3153.6 1899.25 L3153.95 1899.65 3151.95 1900.05 3149.9 1899.65 Q2940.55 1914.25 2826.5 1857.6 L2924 1879.85 3029.45 1889.95 3098.2 1889.15 3118.8 1886.35 3138.25 1895.25 3137.4 1894.45 3093.35 1873.8 2983 1799.7 2973.75 1792.45 2999.95 1787.6 3000.4 1787.15 3068.25 1767.75 3157.2 1732.95 3227.15 1698.6 3280.15 1667.4 3291.45 1675.55 3238.3 1628.95 Q3243.3 1617.35 3247.75 1604.4 L3299.95 1655.7 3299.95 1654.9 3357.75 1618.05 3479.45 1521.35 3539.25 1463.85 3547.7 1471.55 3423.25 1353.4 Q3400.2 1374.05 3376.35 1394.65 3325.6 1438.05 3275.1 1475.5 3277.25 1457.4 3279 1437.8 3281.15 1413.3 3283.6 1368.85 3286.25 1321.7 3288.25 1224.65 L3423.25 1353.4 3443.85 1334 3310.4 1193.55 3388.45 1114.65 3511.75 970.2 3645.55 1108.6 3663.75 1083.15 3535.2 939.45 3571.6 894.15 3678.35 738.75 Q3690.5 722.6 3694.9 711.6 L3805.65 827.85 Q3811.7 813.6 3817 799.05 L3700.15 661.85 3576.05 532 3480.3 441.8 3528.35 413 3578.1 388.35 3634.3 367.7 3636.3 364.05 3603.9 369.75 3540.1 392.35 3469.3 426.8 3467.3 428.8 3477.85 439.35 3394.95 365.25 3261.55 259.25 3324.15 247.55 3428.1 243.9 3496.8 252 Q3386.85 217.15 3240.1 243.5 L3140.25 178.3 3096.95 158.45 3096.15 157.65 3109.9 162.55 3114.75 165.75 3126.45 162.95 3210.6 162.15 3248.2 164.95 3251.4 165.75 3254.25 165.4 3306 170.25 3400.2 193.35 3401 191.75 3348.45 174.7 3292.65 161.7 3223.5 150.85 3131.3 146 3073.5 149.6 3073.15 149.2 3029.45 152.45 2938.9 169.45 2935.65 169.45 2934.85 170.25 2895.25 177.5 2805.45 204.2 2716.55 241.5 2619.15 297.65 2561.7 340.6 2497.4 397.65 Q2445.25 447.45 2403.4 507 L2385.35 510.9 Q2412.25 469.55 2444.45 430.4 2474.4 394 2509.15 359.2 2770.75 97.35 3141.05 97.35 3510.95 97.35 3772.5 359.2 3838.05 424.75 3886.95 496.8 3875.65 648.55 3817 799.05 L3884.9 883.2 3882.45 879.95 3895.85 796.2 3897.85 719.75 3886.95 640.05 3889.35 639.2 3891 644.1 M3888.95 1363.1 L3892.6 1370.8 3893.45 1370 3888.95 1363.1 M3893 928.55 L3892.2 929.35 3891 938.65 3890.2 939.45 Q3857.05 1088.4 3782.2 1221.5 L3826.25 1274.5 3884.05 1355.05 3909.55 1303.6 3944.3 1205.65 3969.8 1099.3 3975.45 1039.45 3980.35 1045.1 3970.6 1026.45 3893.45 927.3 3893 928.55 M3449.05 462.4 L3677.95 693 3658.15 725.05 3590.6 816.05 3511.75 911.1 3513 915.6 3435.8 835.05 3435.7 833.95 3435.5 834.7 3434.8 712.05 Q3434 596.75 3433.55 611.85 3433.6 598.1 3426.1 577.2 3416.8 550.95 3399.85 528.55 3391.85 517.95 3382.75 509 L3448.25 463.2 3449.05 462.4 M3350.25 484.25 Q3316.1 464.4 3273.05 461.5 3086.6 461.5 3049.3 461.75 L3039.75 461.8 2949 381.05 2953.9 383.5 2999.6 355.55 Q3034.55 338.4 3069.45 321.2 L3177.8 279.05 3232 265.35 3288.2 311.05 3432.55 447.45 3361.2 491.2 Q3355.9 487.45 3350.25 484.25 M3739.8 591.45 L3700.15 661.85 3713.1 674.8 3723.55 656.2 3755.55 586.2 Q3782.65 517.8 3775.4 507.3 L3739.8 591.45 M3081.6 166.6 L3102.65 165.75 3100.2 163.35 3111.5 169 3134.55 184 3213.05 248.8 Q3156.85 253.95 2987.4 325.6 L2922.75 359.6 2857.25 307 2771.55 249.6 2770.75 248.8 2782.45 254.8 2786.9 256.05 2873.4 217.15 2955.5 190.9 3081.6 166.6 M2932.05 394.8 L3000.65 462.05 Q2896.5 463.05 2857.55 465.65 L2832.45 467.05 2875.05 433.25 2929.15 398.45 2932.05 395.6 2932.05 394.8 M2699.2 305 Q2739.45 282.15 2779.65 259.25 L2905.35 369.75 2833.8 415.45 2735.5 491.8 Q2695.5 465.75 2657.1 461.9 2643.35 460.55 2628.45 461.95 L2606.6 464.8 Q2598.8 465.85 2568.25 472 L2526.5 433.25 2531 436.1 2533.8 438.9 2585.6 390.4 2634.05 350.7 2699.2 305 M2778.85 659 Q2831.6 636.5 2904.4 633.05 L3210.7 633.05 3226.35 633.05 3267.35 633.05 3267.35 845.6 3249.8 845.6 3226.35 845.6 3210.7 845.6 2881.95 845.6 Q2847.75 843.7 2808.15 935 L2614.65 863.7 2624 844.65 Q2687.45 714.65 2750.5 673.6 2764.7 663.85 2778.85 659 M2640.6 633.6 L2640.6 634.55 Q2599.55 656.5 2566.8 702.5 2533.1 750.85 2490.55 850 L2354.3 875.4 2661.6 1230.55 Q2700.7 1289.15 2700.7 1368.35 2700.7 1446.95 2648.4 1504.6 2596.6 1560.35 2458.85 1560.35 L2216 1560.35 2055.3 1560.35 2044.1 1560.35 2007.9 1560.35 1995.2 1560.35 1943.9 1560.35 Q1886.75 1561.75 1842.75 1540.35 1810.45 1524.2 1785.6 1495.85 1726.95 1430.9 1726.95 1320.95 L1726.95 973.1 Q1727.45 951.6 1727.45 931.55 1730.4 700.55 1616.05 634.55 L1888.65 634.55 Q1907.75 655.05 1919.5 692.7 1934.6 741.6 1932.15 802.15 L1932.15 1260.4 Q1931.15 1279.45 1933.6 1294.55 1936.6 1320 1946.85 1334.15 1961.5 1353.2 1995.2 1355.6 L2003.55 1355.6 2458.85 1355.6 Q2475.95 1355.6 2477.9 1335.15 2479.85 1317.05 2471.5 1308.25 L2122.25 935 2121.25 927.65 Q2127.15 750.85 2193.55 725.45 L2640.6 633.6 M3155.05 964.3 L3152.55 1262.85 Q3147.2 1560.85 3130.15 1560.85 3113.5 1560.85 3082.75 1528.1 3045.6 1488 3013.85 1423.05 2925.4 1241.35 2927.8 964.3 L3155.05 964.3 M3311.25 1692.1 L3247.75 1724.85 3164.9 1760.9 3090.9 1786.35 3025 1800.5 3023.8 1801.75 3021 1801.35 3020.2 1802.15 3018.55 1802.95 3088.05 1859.55 3128.9 1887.5 3136.2 1890.75 3135.35 1889.95 3127.7 1886.35 3130.15 1885.5 3199.3 1877.85 3279.3 1860 3364.15 1832.55 3447.05 1794.9 3460.85 1802.95 3461.65 1802.15 3404.6 1765.3 3311.25 1692.1 M3570.35 1492.6 L3501.25 1558.55 3434.55 1611.55 3327.4 1681.55 3441.45 1784.35 3452.3 1792.85 3454.35 1790.85 3535.2 1745.5 3656.1 1653.65 3698.95 1612.4 3701.8 1614.45 3570.35 1492.6 M3881.3 1361.95 L3838.85 1308.9 3772.15 1239.75 Q3730.5 1310.5 3676.75 1376.5 L3582.9 1480.1 3706.2 1614 3702.55 1608.75 3758.4 1548.05 3811.35 1480.5 3850.1 1422.25 3881.3 1361.95 M3645.55 1108.6 Q3559.05 1225.95 3443.85 1334 L3561.95 1458.2 3561.95 1456.6 3555.45 1447.65 3647.6 1347.35 3702.55 1274.5 3745 1210.95 3645.55 1108.6 M3424.65 903.85 Q3427.55 896.05 3429.7 888.1 L3485.45 943.95 3397.75 1041.45 3289.5 1154.4 3291.15 1013.55 Q3357 1003.05 3396.9 953.3 3414.5 931.25 3424.65 903.85 M3663.75 1083.15 L3766.45 1201.65 3757.6 1189.5 3799.2 1117.1 3835.6 1037.8 3864.3 957.3 3876 910.75 3878.05 909.5 3805.65 827.85 Q3792.75 858.95 3777.8 890.1 3729.7 989.2 3663.75 1083.15 M2962.75 1811.85 L2958.75 1812.7 2955.5 1812.7 2952.25 1813.5 2949 1813.5 2898.1 1818.35 2811.95 1814.75 2749.3 1803.75 2734.75 1798.9 2740 1798.5 2828.1 1807.45 2910.2 1803.75 2972.85 1792.85 2992.3 1808.25 2985 1809.85 2981.8 1809.85 2978.55 1810.7 2975.7 1810.25 2965.15 1811.85 2962.75 1811.85 M2527.3 439.75 L2523.3 433.25 2560.6 473.6 2487.9 488.85 2527.3 447 2530.2 442.6 2527.3 439.75 M1476.5 659 Q1584.5 721.5 1587.45 931.55 1587.45 951.6 1586.95 973.1 L1586.95 981.4 Q1586.95 987.75 1586.45 994.1 1582.05 1093.8 1530.75 1167.55 1476.5 1248.15 1370.45 1248.15 1238.05 1248.15 1187.75 1169.5 1123.8 1241.85 1026.55 1242.8 935.15 1242.8 907.85 1212.95 894.6 1361.05 792.5 1461.2 688.95 1560.85 543.4 1560.85 L341.55 1560.85 Q173.55 1561.3 88.05 1448.45 2.5 1335.15 5.95 1186.6 5 1163.15 5 1138.25 5 965.3 68.45 877.35 82.15 858.35 96.8 898.85 104.65 920.85 125.15 1008.8 171.6 1204.65 217.95 1251.6 221.9 1256.5 238 1273.6 L240.95 1277 Q285.85 1316.6 354.75 1316.6 L530.2 1316.6 Q602.95 1316.6 654.25 1266.7 705.05 1218.4 705.05 1147 L705.05 715.15 705.05 691.7 902.45 632.55 909.8 632.55 909.8 969.2 Q909.8 1034.2 980.6 1036.15 1041.7 1036.15 1041.7 975.1 L1041.7 694.65 1248.9 633.05 1248.9 969.2 Q1248.9 1034.2 1323.6 1036.15 1380.3 1033.2 1380.3 973.1 L1380.3 632.55 Q1435.95 635.05 1476.5 659"/>
  </g>
</svg>